<svg viewBox="0 0 12 12" fill="none" xmlns="http://www.w3.org/2000/svg">
<path fill-rule="evenodd" clip-rule="evenodd" d="M6 6.10352e-05C6.36819 6.10352e-05 6.66667 0.298546 6.66667 0.666745V5.33354H11.3333C11.7015 5.33354 12 5.63202 12 6.00022C12 6.36842 11.7015 6.6669 11.3333 6.6669H6.66667V11.3337C6.66667 11.7019 6.36819 12.0004 6 12.0004C5.63181 12.0004 5.33333 11.7019 5.33333 11.3337V6.6669H0.666667C0.298477 6.6669 0 6.36842 0 6.00022C0 5.63202 0.298477 5.33354 0.666667 5.33354H5.33333V0.666745C5.33333 0.298546 5.63181 6.10352e-05 6 6.10352e-05Z" fill="currentColor"/>
</svg>
