<svg viewBox="0 0 24 24" fill="none" xmlns="http://www.w3.org/2000/svg">
<path fill-rule="evenodd" clip-rule="evenodd" d="M8 3.75C8 2.7835 8.7835 2 9.75 2H14.25C15.2165 2 16 2.7835 16 3.75V5.25H18.8008H20.25C20.6642 5.25 21 5.58579 21 6C21 6.41421 20.6642 6.75 20.25 6.75H18.7024L17.871 19.4299C17.7762 20.8758 16.5758 22 15.1269 22H8.87316C7.42423 22 6.22386 20.8758 6.12905 19.4299L5.29758 6.75H3.75C3.33579 6.75 3 6.41421 3 6C3 5.58579 3.33579 5.25 3.75 5.25H5.19922H8V3.75ZM14.5 3.75V5.25H9.5V3.75C9.5 3.61193 9.61193 3.5 9.75 3.5H14.25C14.3881 3.5 14.5 3.61193 14.5 3.75ZM6.8008 6.75H8H16H17.1992L16.3742 19.3318C16.3311 19.989 15.7855 20.5 15.1269 20.5H8.87316C8.21455 20.5 7.66893 19.989 7.62584 19.3318L6.8008 6.75ZM12.5 9C12.5 8.72386 12.2761 8.5 12 8.5C11.7239 8.5 11.5 8.72386 11.5 9V18C11.5 18.2761 11.7239 18.5 12 18.5C12.2761 18.5 12.5 18.2761 12.5 18V9ZM15.0277 8.50077C15.3035 8.51609 15.5146 8.75202 15.4992 9.02773L14.9992 18.0277C14.9839 18.3035 14.748 18.5145 14.4723 18.4992C14.1966 18.4839 13.9855 18.248 14.0008 17.9723L14.5008 8.97226C14.5161 8.69655 14.752 8.48545 15.0277 8.50077ZM9.49922 8.97231C9.48391 8.6966 9.24798 8.4855 8.97226 8.50082C8.69654 8.51614 8.48545 8.75207 8.50076 9.02778L9.00076 18.0278C9.01608 18.3035 9.25201 18.5146 9.52773 18.4993C9.80345 18.484 10.0145 18.248 9.99922 17.9723L9.49922 8.97231Z" fill="currentColor"/>
</svg>
