<svg width="158" height="32" viewBox="0 0 158 32" fill="none" xmlns="http://www.w3.org/2000/svg">
<path fill-rule="evenodd" clip-rule="evenodd" d="M142.257 17.2935C142.294 18.3934 142.227 19.5115 142.231 20.6088C142.238 22.84 142.241 25.0709 142.243 27.302C142.245 28.7491 142.245 30.1962 142.245 31.6438H138.346V18.6319C138.346 16.9838 137.893 15.6463 136.985 14.5776C136.078 13.508 134.809 12.9731 133.176 12.9731H126.922V31.6438H123.022V9.36426H134.039C136.943 9.36426 139.481 10.6094 140.945 13.126C141.676 14.3828 142.21 15.9031 142.257 17.2935Z" fill="#24405B"/>
<path fill-rule="evenodd" clip-rule="evenodd" d="M76.7046 18.5426V31.7763H72.8053V18.7648C72.8053 17.1167 72.352 15.78 71.4451 14.7106C70.5386 13.6407 69.2689 13.1058 67.6367 13.1058H62.1049V31.7763H58.2056V9.49696H68.498C69.9944 9.49696 71.3094 9.8086 72.4428 10.4326C73.5761 11.0569 74.5282 11.9031 75.2539 13.0164C75.7525 12.2593 76.3424 11.6353 76.9768 11.1453C77.6118 10.6548 78.2919 10.254 78.972 9.9872C79.6519 9.71919 80.332 9.49696 81.0121 9.36295C81.6926 9.22894 82.3271 9.18555 82.917 9.18555C84.2313 9.18555 85.4103 9.40754 86.4533 9.85343C87.4964 10.2988 88.4031 10.878 89.1284 11.6353C89.8538 12.3936 90.3983 13.3292 90.8059 14.4425C91.214 15.5568 91.3953 16.8051 91.3953 18.1864V31.7763H87.4964V18.4086L87.4959 18.498C87.4959 17.0852 86.9519 15.5122 86.0455 14.4425C85.1383 13.3738 83.8688 12.839 82.2364 12.839C80.8308 12.839 79.6519 13.2398 78.7 14.0415C77.9563 14.6686 77.2915 15.455 76.9669 16.5125C76.7046 17.3666 76.7046 18.5426 76.7046 18.5426Z" fill="#24405B"/>
<path fill-rule="evenodd" clip-rule="evenodd" d="M99.1138 20.5032C99.1237 21.5805 99.3047 22.5798 99.6568 23.5324C100.021 24.5129 100.565 25.3591 101.244 26.0726C101.925 26.7853 102.741 27.3201 103.647 27.7209C104.554 28.1227 105.552 28.3004 106.685 28.3004C108.318 28.3004 109.724 27.9441 110.947 27.2753C112.172 26.6076 113.124 25.7614 113.804 24.7363V16.1809C113.124 15.1559 112.172 14.3094 110.947 13.6417C109.724 12.9729 108.318 12.6169 106.685 12.6169C105.552 12.6169 104.554 12.7943 103.647 13.1961C102.741 13.5971 101.925 14.132 101.244 14.8444C100.565 15.5579 100.021 16.4043 99.6568 17.3846C99.2946 18.3648 99.1138 19.3899 99.1138 20.5032ZM110.585 31.3308C109.36 31.7762 108.046 31.9996 106.64 31.9996C104.963 31.9996 103.421 31.688 102.016 31.1088C100.61 30.5291 99.3853 29.7275 98.3422 28.7024C97.2991 27.6773 96.4834 26.4748 95.8938 25.0487C95.3054 23.623 95.0327 22.1077 95.0327 20.5032C95.0327 18.8997 95.3054 17.3846 95.8938 15.9587C96.4834 14.5328 97.2991 13.3291 98.3422 12.3041C99.3853 11.2802 100.61 10.4773 102.016 9.89767C103.421 9.31944 104.963 9.00684 106.64 9.00684C108.046 9.00684 109.36 9.23026 110.585 9.67567C111.809 10.1211 112.897 10.7453 113.849 11.5918V9.36403H117.749V31.6436H113.849V29.4146C112.897 30.2623 111.809 30.8853 110.585 31.3308Z" fill="#24405B"/>
<path fill-rule="evenodd" clip-rule="evenodd" d="M147.254 9.34916V4.55189L151.153 2.63574V9.31959H158L157.138 12.7944H151.153V24.5588C151.153 25.6721 151.38 26.5632 151.878 27.1875C152.377 27.8115 153.238 28.1229 154.509 28.1229H157.547V31.5992H154.101C151.924 31.5992 150.247 31.0641 149.068 29.9944C147.889 28.9248 147.299 27.3212 147.299 25.1819V12.8393L147.254 9.34916Z" fill="#24405B"/>
<path fill-rule="evenodd" clip-rule="evenodd" d="M35.9367 18.0763C35.9775 17.8781 36.0206 17.6823 36.067 17.4947H36.0704C37.004 14.1999 40.0976 12.309 43.2746 12.309C46.6792 12.309 49.5913 14.466 50.129 18.0763H35.9367ZM54.071 20.0134C54.0266 12.9692 49.2776 8.96289 43.409 8.96289C36.5993 8.96289 31.7612 13.9817 31.7612 20.4094C31.7612 26.8813 36.4203 31.8562 43.3642 31.8562C48.0232 31.8562 51.4283 29.8311 53.4438 26.6169L50.3978 24.5481C49.009 26.8813 46.8588 28.378 43.409 28.378C38.974 28.378 35.7933 25.2961 35.6586 21.1582H54.0266C54.071 20.6736 54.071 20.4094 54.071 20.0134Z" fill="#24405B"/>
<mask id="mask0_37454_3459" style="mask-type:alpha" maskUnits="userSpaceOnUse" x="0" y="0" width="30" height="32">
<path d="M0 0H29.0387V31.6438H0V0Z" fill="white"/>
</mask>
<g mask="url(#mask0_37454_3459)">
<path fill-rule="evenodd" clip-rule="evenodd" d="M27.7242 9.54233C26.8628 7.62619 25.6836 5.97829 24.1871 4.55215C22.691 3.12649 20.8773 2.012 18.7914 1.21035C16.7065 0.407264 14.3932 0.00667646 11.9004 0.00667646L0.940443 0L0 3.79485L9.69462 3.79414H11.9004C13.8499 3.79414 15.6178 4.10674 17.2051 4.72979C18.7914 5.35404 20.1526 6.20028 21.2854 7.27019C22.4192 8.33961 23.2806 9.63151 23.9156 11.1022C24.5496 12.5727 24.8679 14.1763 24.8679 15.9148C24.8679 17.6521 24.5496 19.2566 23.9156 20.7271C23.2806 22.1976 22.4192 23.4895 21.2854 24.5594C20.1526 25.6278 18.7914 26.4755 17.2051 27.0986C15.6178 27.7226 13.8499 28.0342 11.9004 28.0342L8.34389 27.9491V6.49786H4.44454V31.644H4.46395H8.34389H11.9899C14.4842 31.644 16.7518 31.2432 18.8368 30.4406C20.9229 29.6387 22.7361 28.5242 24.2324 27.0986C25.729 25.6724 26.9084 24.0243 27.7695 22.1084C28.6306 20.1922 29.0387 18.0977 29.0387 15.8254C29.0387 13.553 28.5855 11.4582 27.7242 9.54233Z" fill="#24405B"/>
</g>
</svg>
